<?xml version="1.0" encoding="utf-8"?>
<!-- Generator: Adobe Illustrator 27.0.0, SVG Export Plug-In . SVG Version: 6.00 Build 0)  -->
<svg version="1.2" baseProfile="tiny" id="Main" xmlns="http://www.w3.org/2000/svg" xmlns:xlink="http://www.w3.org/1999/xlink"
	 x="0px" y="0px" viewBox="0 0 1149.5 299.8" overflow="visible" xml:space="preserve">
<text transform="matrix(1 0 0 1 882.981 47.6994)" font-family="'ArialMT'" font-size="21.2024px">#color_1</text>
<text transform="matrix(1 0 0 1 882.981 96.3632)" font-family="'ArialMT'" font-size="21.2024px">#color_2</text>
<text transform="matrix(1 0 0 1 882.981 145.0272)" font-family="'ArialMT'" font-size="21.2024px">#color_3</text>
<text transform="matrix(1 0 0 1 882.981 193.6912)" font-family="'ArialMT'" font-size="21.2024px">#color_4</text>
<rect id="color_x5F_box_x5F_1_00000115493865750978978270000016452268205484689823_" x="831.5" y="21.7" fill="none" stroke="#000000" stroke-width="1.7143" stroke-miterlimit="10" width="36.7" height="36.7"/>
<rect id="color_x5F_box_x5F_2" x="831.5" y="70.4" fill="none" stroke="#000000" stroke-width="1.7143" stroke-miterlimit="10" width="36.7" height="36.7"/>
<rect id="color_x5F_box_x5F_3" x="831.5" y="119.1" fill="none" stroke="#000000" stroke-width="1.7143" stroke-miterlimit="10" width="36.7" height="36.7"/>
<rect id="color_x5F_box_x5F_4" x="831.5" y="167.7" fill="none" stroke="#000000" stroke-width="1.7143" stroke-miterlimit="10" width="36.7" height="36.7"/>
<text transform="matrix(1 0 0 1 496.2337 204.6897)" font-family="'ArialMT'" font-size="21.2024px">#bias</text>
<text transform="matrix(1 0 0 1 496.2337 141.5471)" font-family="'ArialMT'" font-size="21.2024px">#trapping</text>
<text transform="matrix(1 0 0 1 496.2337 172.9915)" font-family="'ArialMT'" font-size="21.2024px">#liniatura</text>
<text transform="matrix(1 0 0 1 496.2337 109.7962)" font-family="'ArialMT'" font-size="21.2024px">#print_type</text>
<text transform="matrix(1 0 0 1 496.2338 46.4522)" font-family="'ArialMT'" font-size="21.2024px">#board_profile</text>
<text transform="matrix(1 0 0 1 496.2338 78.1509)" font-family="'ArialMT'" font-size="21.2024px">#fefco</text>
<text transform="matrix(1 0 0 1 17.2489 201.2539)" font-family="'ArialMT'" font-size="21.2024px">#date</text>
<text transform="matrix(1 0 0 1 17.2489 267.5105)" fill="#FF0000" font-family="'ArialMT'" font-size="21.2024px">Attention!</text>
<text transform="matrix(1 0 0 1 17.2489 292.9539)" fill="#FF0000" font-family="'ArialMT'" font-size="21.2024px">Errors identified in the finished product after approval of the layout are not grounds for complaints.</text>
<text id="_x23_product" transform="matrix(1 0 0 1 17.2489 171.2985)" font-family="'ArialMT'" font-size="21.2024px">#product</text>
<text transform="matrix(1 0 0 1 17.2489 141.5476)" font-family="'ArialMT'" font-size="21.2024px">#customer</text>
<text transform="matrix(1 0 0 1 17.2489 71.6892)" font-family="'ArialMT'" font-size="21.2024px">#phone</text>
<text transform="matrix(1 0 0 1 17.2489 42.3269)" font-family="'ArialMT'" font-size="21.2024px">#designer</text>
<rect x="0.9" y="0.9" fill="none" stroke="#000000" stroke-width="1.8425" stroke-miterlimit="10" width="468.5" height="228.1"/>
<rect x="481.5" y="0.9" fill="none" stroke="#000000" stroke-width="1.8425" stroke-miterlimit="10" width="327.9" height="228.1"/>
<rect x="820.7" y="0.9" fill="none" stroke="#000000" stroke-width="1.8425" stroke-miterlimit="10" width="327.9" height="228.1"/>
<line fill="none" stroke="#000000" stroke-width="1.8425" stroke-miterlimit="10" x1="17.4" y1="104.5" x2="451.5" y2="104.5"/>
<g id="Logo">
	<path fill="#3E53CE" d="M398.5,51.8c-0.8-0.9-0.7-1.9,0.2-2.5c1-0.7,1.4,0.2,1.8,0.8c2.7,3.4,5.4,6.8,8.2,10.2
		c0.8,1,1.8,1.5,3.1,1.3c1.2-0.2,2-1,2.5-2c0.4-1,0-1.6-0.6-2.4c-7.2-8.6-14.3-17.3-21.5-25.9c-0.8-0.9-1.5-1.8-2.3-2.7
		c-3.7,2.1-7.3,4.2-10.9,6.2c-1.8,1-3.5,2.1-5.4,2.8c-2.8,1.1-5.3-0.2-6.3-2.9c-1.1-2.9-0.2-6.3,2.2-8.2c2.7-2.1,5.3-4.2,8-6.3
		c1.9-1.5,3.8-3,5.9-4.6c-0.7-0.3-1.1-0.7-1.6-0.7c-1.2,0-2.6-0.1-3.7,0.4c-1.8,0.7-3.4,2-5.2,2.8c-1.5,0.7-3.2,1.5-4.8,1.8
		c-2.5,0.5-4.5-0.8-6.3-2.6c-0.1,0.4-0.2,0.6-0.3,0.9c-2.5,7.3-4.9,14.7-7.6,21.9c-0.7,1.9-0.6,3.3,0.9,4.8c1.9,2,3.6,4.2,5.3,6.3
		c4.8-3.2,7.3-2.1,9.1,3.7c1.1-1.1,2.3-2.1,3.4-3.2c1.8-1.8,3.9-2.2,5.8-1c1.4,0.9,2.1,2.2,2.6,3.7c0.1,0.5,0.2,1,0.3,1.5
		c2.7-1.4,4.7-1.1,6.4,0.9c1.6,2,1.7,4.3,1.3,6.6c2.9,0.9,4.1,2,4.6,4.5c0.2,1.1,0.2,2.2,0.1,3.3c-0.1,1,0.2,1.3,1.1,1.4
		c1.2,0.1,2-0.4,2.6-1.3c1.1-1.7,1.1-4-0.3-5.7c-2-2.6-4.1-5.1-6.1-7.7c-0.7-0.9-0.6-1.9,0.2-2.5c1-0.7,1.3,0.3,1.7,0.8
		c2.6,3.2,5.2,6.4,7.8,9.6c1.8,2.2,4.4,1.7,5.3-1c0.6-1.9,0.3-3.6-1-5.2C402.9,57.2,400.7,54.5,398.5,51.8z"/>
	<path fill="#3E53CE" d="M423.8,42.9c-3.2-6.8-6.4-13.6-9.6-20.4c-0.7-1.4-1.3-2.7-2-4.1c-0.2,0.1-0.3,0.1-0.3,0.1
		c-0.2,0.1-0.3,0.2-0.5,0.3c-2,1.5-4.1,1.4-6.1,0c-0.5-0.3-0.9-0.7-1.4-1c-1.8-1.2-3.5-2.5-5.4-3.5c-2.8-1.6-5.7-1.5-8.5-0.1
		c-1.3,0.6-2.5,1.3-3.7,2.1c-5.6,3.6-10.9,7.7-15.9,12.1c-1.7,1.6-2.1,4.4-0.9,6.1c1,1.3,2.9,1.4,5.1,0.2c4.3-2.4,8.5-4.8,12.7-7.3
		c3.1-1.8,3.1-1.8,5.4,1c5.7,6.9,11.4,13.8,17.1,20.7c1.7,2,3.3,4,5,6.1c3.7-3.3,7-6.8,9.2-11.1C424.1,43.9,424,43.3,423.8,42.9z"/>
	<path fill="#3E53CE" d="M351.3,42c1.2-3.3,2.3-6.7,3.4-10c1.8-5.4,3.7-10.8,5.5-16.2c0.5-1.6,0.3-2.7-0.8-3.2
		c-2-0.9-4.1-1.8-6.2-2.6c-0.9-0.4-1.6,0-2.1,0.8c-0.2,0.4-0.4,0.8-0.5,1.3c-2.9,8.6-5.9,17.2-8.8,25.8c-0.1,0.4-0.2,0.7-0.3,0.9
		c0,1.2,0.4,1.9,1.4,2.4c1.7,0.7,3.5,1.5,5.2,2.2C349.9,44.1,350.7,43.7,351.3,42z"/>
	<path fill="#3E53CE" d="M434.5,36.6c-1.9-4.1-3.9-8.1-5.8-12.2c-2-4.2-3.9-8.4-5.9-12.5c-0.8-1.7-1.7-1.9-3.2-0.9
		c-1.5,1-3.1,1.9-4.6,2.9c-1.5,1-1.8,2-1,3.6c1.7,3.5,3.3,7,5,10.5c2.3,4.8,4.6,9.6,6.9,14.4c0.7,1.4,1.6,1.6,2.9,0.8
		c1.6-1,3.3-2,4.8-3.1c0.6-0.4,1-1.2,1.4-1.8C434.8,37.5,434.7,37,434.5,36.6z"/>
	<path fill="#3E53CE" d="M373.8,68.7c0,1.6,0.5,3.1,2.1,3.8c1.7,0.7,2.8-0.3,3.8-1.3c2-2,4.1-4.1,6.1-6.2c1.1-1.1,1.6-2.4,1.5-4
		c-0.1-1.4-0.6-2.8-2.1-3.4c-1.5-0.6-2.6,0-3.7,1.1c-2.1,2.2-4.3,4.3-6.4,6.5C374.2,66.2,373.7,67.4,373.8,68.7z"/>
	<path fill="#3E53CE" d="M377.2,52.7c-1.6-0.7-2.7,0.1-3.8,1.2c-1.6,1.6-3.2,3.2-4.8,4.9c-1.4,1.4-1.8,3.6-1,5.3
		c1,2.3,3.3,2.8,5.1,1c1.7-1.7,3.4-3.4,5.2-5.1c1-1,1.5-2.1,1.5-3C379.3,54.8,378.8,53.4,377.2,52.7z"/>
	<path fill="#3E53CE" d="M388.4,76.1c0.8-0.9,1.7-1.7,2.3-2.7c0.6-1,1.1-2.1,1.6-3.1c-0.1,0-0.2-0.1-0.3-0.1c0-0.2,0-0.4,0-0.6
		c-0.2-1.5-0.8-2.8-2.3-3.3c-1.4-0.5-2.5,0.1-3.4,1.2c-0.8,1-1.9,2-2.6,3.1c-0.6,0.9-1,1.9-1.2,2.9c-0.3,1.6,0.8,3.5,2.1,4
		C385.9,78,387,77.6,388.4,76.1z"/>
	<path fill="#3E53CE" d="M367.2,54.9c-0.3-2.1-2.3-3.7-3.8-3c-2.5,1.1-4.2,2.9-3.9,5.9c0.2,2.2,2.3,3.8,4.1,3.1
		c1.6-0.7,3.9-2.6,3.7-4.7C367.3,55.5,367.3,55.2,367.2,54.9z"/>
	<path fill="#3E53CE" d="M354.3,91.7c-0.5,0.4-1,0.6-1.6,0.6c-0.9,0-1.6-0.3-2.1-0.9c-0.5-0.6-0.8-1.7-0.8-3.2c0-1.4,0.3-2.4,0.8-3
		c0.5-0.6,1.2-0.9,2.1-0.9c0.6,0,1.2,0.2,1.6,0.5c0.4,0.4,0.7,0.8,0.9,1.4l2.3-0.6c-0.3-0.9-0.7-1.7-1.2-2.2
		c-0.9-0.8-2.1-1.3-3.5-1.3c-1.6,0-3,0.5-4,1.6c-1,1.1-1.5,2.6-1.5,4.6c0,1.8,0.5,3.3,1.5,4.4c1,1.1,2.3,1.6,3.8,1.6
		c1.3,0,2.3-0.3,3.1-0.9c0.8-0.6,1.4-1.6,1.8-2.9l-2.3-0.7C355.1,90.7,354.8,91.3,354.3,91.7z"/>
	<path fill="#3E53CE" d="M364.9,82.2c-1,0-1.8,0.2-2.5,0.5c-0.6,0.2-1.1,0.6-1.5,1.1c-0.5,0.5-0.8,1-1.1,1.6c-0.4,0.8-0.5,1.8-0.5,3
		c0,1.9,0.5,3.3,1.5,4.4c1,1.1,2.4,1.6,4.2,1.6c1.7,0,3.1-0.5,4.1-1.6c1-1.1,1.5-2.6,1.5-4.5c0-1.9-0.5-3.4-1.6-4.5
		C368,82.7,366.6,82.2,364.9,82.2z M367.2,91.3c-0.6,0.7-1.4,1-2.3,1c-0.9,0-1.7-0.3-2.3-1c-0.6-0.7-0.9-1.7-0.9-3
		c0-1.4,0.3-2.4,0.9-3c0.6-0.7,1.4-1,2.4-1c1,0,1.8,0.3,2.4,1c0.6,0.7,0.9,1.7,0.9,3C368.1,89.6,367.8,90.6,367.2,91.3z"/>
	<polygon fill="#3E53CE" points="378.1,90.4 375.9,82.4 372.4,82.4 372.4,94.2 374.6,94.2 374.6,84.9 376.9,94.2 379.2,94.2 
		381.5,84.9 381.5,94.2 383.7,94.2 383.7,82.4 380.2,82.4 	"/>
	<path fill="#3E53CE" d="M395.1,86c0-0.9-0.2-1.7-0.7-2.3c-0.5-0.6-1-1-1.7-1.2c-0.4-0.1-1.4-0.2-2.8-0.2h-3.8v11.8h2.4v-4.4h1.5
		c1.1,0,1.9-0.1,2.5-0.2c0.4-0.1,0.8-0.3,1.2-0.6c0.4-0.3,0.7-0.7,1-1.2C395,87.4,395.1,86.7,395.1,86z M392.4,87
		c-0.2,0.3-0.4,0.5-0.7,0.6c-0.3,0.1-0.9,0.2-1.9,0.2h-1.3v-3.3h1.1c0.9,0,1.4,0,1.7,0.1c0.4,0.1,0.7,0.2,1,0.5
		c0.3,0.3,0.4,0.6,0.4,1.1C392.7,86.4,392.6,86.7,392.4,87z"/>
	<path fill="#3E53CE" d="M399.2,82.4l-4.6,11.8h2.5l1-2.7h4.7l1,2.7h2.6l-4.7-11.8H399.2z M398.9,89.5l1.6-4.4l1.6,4.4H398.9z"/>
	<polygon fill="#3E53CE" points="414.8,90.3 410,82.4 407.7,82.4 407.7,94.2 409.9,94.2 409.9,86.5 414.7,94.2 417,94.2 417,82.4 
		414.8,82.4 	"/>
	<polygon fill="#3E53CE" points="423.9,87.1 421.1,82.4 418.3,82.4 422.6,89.2 422.6,94.2 425,94.2 425,89.2 429.3,82.4 426.6,82.4 
			"/>
</g>
</svg>
